<svg width="9" height="14" viewBox="0 0 9 14" fill="none" xmlns="http://www.w3.org/2000/svg">
<path d="M-6.04828e-08 0.825564L-3.73544e-07 2.5107C-3.95097e-07 2.62671 0.0644752 2.73419 0.169116 2.79209L5.25111 6.71856C5.47645 6.84372 5.47645 7.1564 5.25111 7.28156L0.169114 11.208C0.064474 11.2661 -1.73705e-06 11.3734 -1.7586e-06 11.4894L-2.07166e-06 13.1746C-2.11813e-06 13.4247 0.281787 13.5811 0.507134 13.4559L8.83081 7.28156C9.05615 7.1564 9.05615 6.84372 8.83081 6.71856L0.507136 0.543964C0.281789 0.419012 -1.39804e-08 0.575253 -6.04828e-08 0.825564Z" fill="white"/>
<path d="M8.8311 6.71862L0.50743 2.09964C0.466631 2.07688 0.423929 2.06632 0.381228 2.06104L8.40831 6.51524C8.63366 6.64039 8.63366 6.95308 8.40831 7.07823L0.0846388 11.6972C0.0634993 11.709 0.0413031 11.7159 0.0195295 11.7228C0.084639 11.9085 0.315693 12.0068 0.507428 11.9004L8.8311 7.28161C9.05666 7.15646 9.05666 6.84357 8.8311 6.71862Z" fill="white"/>
</svg>
