<svg width="120" height="120" viewBox="0 0 120 120" fill="none" xmlns="http://www.w3.org/2000/svg">
<path d="M60 0C44.087 0 28.8258 6.32141 17.5736 17.5736C6.32141 28.8258 0 44.087 0 60C0 75.913 6.32141 91.1742 17.5736 102.426C28.8258 113.679 44.087 120 60 120C61.9891 120 63.8968 119.21 65.3033 117.803C66.7098 116.397 67.5 114.489 67.5 112.5C67.5 110.511 66.7098 108.603 65.3033 107.197C63.8968 105.79 61.9891 105 60 105C51.0998 105 42.3996 102.361 34.9993 97.4161C27.5991 92.4715 21.8314 85.4434 18.4254 77.2208C15.0195 68.9981 14.1283 59.9501 15.8647 51.2209C17.601 42.4918 21.8868 34.4736 28.1802 28.1802C34.4736 21.8868 42.4918 17.601 51.2209 15.8647C59.9501 14.1283 68.9981 15.0195 77.2208 18.4254C85.4434 21.8314 92.4715 27.5991 97.4161 34.9993C102.361 42.3996 105 51.0998 105 60V82.5C105 84.4891 104.21 86.3968 102.803 87.8033C101.397 89.2098 99.4891 90 97.5 90C95.5109 90 93.6032 89.2098 92.1967 87.8033C90.7902 86.3968 90 84.4891 90 82.5V60C90 54.0666 88.2405 48.2664 84.9441 43.3329C81.6476 38.3994 76.9623 34.5542 71.4805 32.2836C65.9987 30.013 59.9667 29.4189 54.1473 30.5764C48.3279 31.734 42.9824 34.5912 38.7868 38.7868C34.5912 42.9824 31.734 48.3279 30.5764 54.1473C29.4189 59.9667 30.013 65.9987 32.2836 71.4805C34.5542 76.9623 38.3994 81.6476 43.3329 84.9441C48.2664 88.2405 54.0666 90 60 90C65.407 89.9736 70.704 88.4701 75.3186 85.6521C76.1043 91.2868 79 96.413 83.4205 99.9944C87.841 103.576 93.4564 105.345 99.1315 104.945C104.807 104.544 110.118 102.004 113.992 97.8377C117.866 93.6712 120.013 88.1892 120 82.5V60C119.984 44.0918 113.658 28.8397 102.409 17.5909C91.1603 6.34213 75.9082 0.0156861 60 0V0ZM60 75C57.0333 75 54.1332 74.1203 51.6664 72.472C49.1997 70.8238 47.2771 68.4811 46.1418 65.7402C45.0065 62.9994 44.7094 59.9834 45.2882 57.0736C45.867 54.1639 47.2956 51.4912 49.3934 49.3934C51.4912 47.2956 54.1639 45.867 57.0736 45.2882C59.9834 44.7094 62.9994 45.0065 65.7402 46.1418C68.4811 47.2771 70.8238 49.1997 72.472 51.6664C74.1203 54.1332 75 57.0333 75 60C74.9973 63.9774 73.4161 67.7912 70.6036 70.6036C67.7912 73.4161 63.9774 74.9973 60 75Z" fill="#56C26A"/>
</svg>
