<svg width="19" height="20" viewBox="0 0 19 20" fill="none" xmlns="http://www.w3.org/2000/svg">
<path d="M13.0756 0.768555H5.38492C4.84108 0.768555 4.46878 1.31855 4.67109 1.82315L5.38415 3.84543H13.0763L13.7894 1.82315C13.9917 1.31855 13.6194 0.768555 13.0756 0.768555Z" fill="#56C26A"/>
<path d="M13.0767 5.38477H5.38453C5.38453 5.38477 0 10.0001 0 15.3846C0 18.4615 2.30766 19.9999 3.84609 19.9999C5.38453 19.9999 9.23062 19.9999 9.23062 19.9999C9.23062 19.9999 13.0767 19.9999 14.6152 19.9999C16.1536 19.9999 18.4612 18.4615 18.4612 15.3846C18.4612 10.0001 13.0767 5.38477 13.0767 5.38477ZM9.99984 16.0754V17.3076H8.4614V16.0792C7.32988 15.8669 6.61836 15.1715 6.57682 14.1554H7.9091C7.97295 14.6892 8.5114 15.0315 9.28754 15.0315C10.0037 15.0315 10.5106 14.6846 10.5106 14.1869C10.5106 13.7669 10.1821 13.5254 9.37446 13.3516L8.51679 13.1693C7.31681 12.9185 6.72758 12.2931 6.72758 11.2893C6.72758 10.2793 7.39604 9.55931 8.4614 9.32239V8.07703H9.99984V9.32009C11.0383 9.55239 11.7321 10.2601 11.766 11.2162H10.4698C10.406 10.6962 9.92215 10.3493 9.25601 10.3493C8.56679 10.3493 8.11064 10.6685 8.11064 11.1708C8.11064 11.577 8.42525 11.81 9.19678 11.9739L9.99061 12.1431C11.3144 12.4216 11.8844 12.9923 11.8844 14.0139C11.8844 15.1138 11.1783 15.8515 9.99984 16.0754Z" fill="#56C26A"/>
<path d="M11.5382 2.30766H6.92285C6.92285 1.03306 7.95591 0 9.23051 0C10.5051 0 11.5382 1.03306 11.5382 2.30766Z" fill="#56C26A"/>
</svg>
