<svg width="21" height="20" viewBox="0 0 21 20" fill="none" xmlns="http://www.w3.org/2000/svg">
<path d="M10.9229 0.61192L13.2184 5.60209C13.3182 5.9015 13.6176 6.1011 13.917 6.20091L19.1068 6.99933C20.005 6.99933 20.3044 7.99737 19.7056 8.59619L15.9131 12.4885C15.7135 12.6881 15.6137 13.0873 15.6137 13.3867L16.5119 18.7761C16.6117 19.5746 15.8133 20.2732 15.1147 19.874L10.4239 17.2791C10.1245 17.0795 9.82508 17.0795 9.52567 17.2791L4.83492 19.874C4.13629 20.2732 3.23806 19.6744 3.43767 18.7761L4.3359 13.3867C4.4357 13.0873 4.2361 12.6881 4.03649 12.4885L0.243964 8.59619C-0.255053 7.99737 0.044357 6.99933 0.842784 6.89953L6.03256 6.1011C6.33197 6.1011 6.63138 5.80169 6.73118 5.50228L9.02666 0.512116C9.52567 -0.186507 10.5237 -0.186507 10.9229 0.61192Z" fill="#56C26A"/>
</svg>
