<svg width="12" height="13" viewBox="0 0 12 13" fill="none" xmlns="http://www.w3.org/2000/svg">
<path d="M3.17461 11.7773L6.77189e-06 12.4829L0.705606 9.3083C0.240926 8.43914 -0.00147711 7.46849 6.77189e-06 6.48291C6.77189e-06 3.16911 2.68621 0.48291 6 0.48291C9.3138 0.48291 12 3.16911 12 6.48291C12 9.79671 9.3138 12.4829 6 12.4829C5.01442 12.4844 4.04377 12.242 3.17461 11.7773ZM3.00001 6.48291C3.00001 7.27856 3.31608 8.04162 3.87868 8.60423C4.44129 9.16683 5.20435 9.48291 6 9.48291C6.79565 9.48291 7.55871 9.16683 8.12132 8.60423C8.68393 8.04162 9 7.27856 9 6.48291H7.8C7.8 6.9603 7.61036 7.41813 7.2728 7.7557C6.93523 8.09326 6.47739 8.28291 6 8.28291C5.52261 8.28291 5.06478 8.09326 4.72721 7.7557C4.38965 7.41813 4.2 6.9603 4.2 6.48291H3.00001Z" fill="#56C26A"/>
</svg>
