<svg width="12" height="13" viewBox="0 0 12 13" fill="none" xmlns="http://www.w3.org/2000/svg">
<g clip-path="url(#clip0_34_668)">
<path d="M7.2002 5.28291C6.88194 5.28291 6.57671 5.15648 6.35167 4.93144C6.12662 4.70639 6.0002 4.40117 6.0002 4.08291V0.48291H2.4002C2.08194 0.48291 1.77671 0.609338 1.55167 0.834382C1.32662 1.05943 1.2002 1.36465 1.2002 1.68291V11.2829C1.2002 11.6012 1.32662 11.9064 1.55167 12.1314C1.77671 12.3565 2.08194 12.4829 2.4002 12.4829H9.6002C9.91846 12.4829 10.2237 12.3565 10.4487 12.1314C10.6738 11.9064 10.8002 11.6012 10.8002 11.2829V5.28291H7.2002Z" fill="#56C26A"/>
<path d="M7.2002 3.48291C7.2002 3.64204 7.26341 3.79465 7.37593 3.90717C7.48845 4.0197 7.64106 4.08291 7.80019 4.08291H10.8002C10.8006 4.00395 10.7855 3.92567 10.7556 3.85257C10.7258 3.77946 10.6818 3.71298 10.6262 3.65691L7.62619 0.65692C7.57013 0.601311 7.50364 0.557316 7.43054 0.527457C7.35744 0.497599 7.27916 0.482464 7.2002 0.48292V3.48291Z" fill="#56C26A"/>
</g>
<defs>
<clipPath id="clip0_34_668">
<rect width="12" height="12" fill="white" transform="translate(0 0.48291)"/>
</clipPath>
</defs>
</svg>
