<svg width="12" height="11" viewBox="0 0 12 11" fill="none" xmlns="http://www.w3.org/2000/svg">
<path d="M3.42857 8.1831V9.46881C3.42857 9.64738 3.36607 9.79917 3.24107 9.92417C3.11607 10.0492 2.96429 10.1117 2.78571 10.1117H0.642857C0.464286 10.1117 0.3125 10.0492 0.1875 9.92417C0.0625 9.79917 0 9.64738 0 9.46881V8.1831C0 8.00453 0.0625 7.85274 0.1875 7.72774C0.3125 7.60274 0.464286 7.54024 0.642857 7.54024H2.78571C2.96429 7.54024 3.11607 7.60274 3.24107 7.72774C3.36607 7.85274 3.42857 8.00453 3.42857 8.1831ZM3.42857 4.75453V6.04024C3.42857 6.21881 3.36607 6.3706 3.24107 6.4956C3.11607 6.6206 2.96429 6.6831 2.78571 6.6831H0.642857C0.464286 6.6831 0.3125 6.6206 0.1875 6.4956C0.0625 6.3706 0 6.21881 0 6.04024V4.75453C0 4.57596 0.0625 4.42417 0.1875 4.29917C0.3125 4.17417 0.464286 4.11167 0.642857 4.11167H2.78571C2.96429 4.11167 3.11607 4.17417 3.24107 4.29917C3.36607 4.42417 3.42857 4.57596 3.42857 4.75453ZM12 8.1831V9.46881C12 9.64738 11.9375 9.79917 11.8125 9.92417C11.6875 10.0492 11.5357 10.1117 11.3571 10.1117H4.92857C4.75 10.1117 4.59821 10.0492 4.47321 9.92417C4.34821 9.79917 4.28571 9.64738 4.28571 9.46881V8.1831C4.28571 8.00453 4.34821 7.85274 4.47321 7.72774C4.59821 7.60274 4.75 7.54024 4.92857 7.54024H11.3571C11.5357 7.54024 11.6875 7.60274 11.8125 7.72774C11.9375 7.85274 12 8.00453 12 8.1831ZM3.42857 1.32596V2.61167C3.42857 2.79025 3.36607 2.94203 3.24107 3.06703C3.11607 3.19203 2.96429 3.25453 2.78571 3.25453H0.642857C0.464286 3.25453 0.3125 3.19203 0.1875 3.06703C0.0625 2.94203 0 2.79025 0 2.61167V1.32596C0 1.14739 0.0625 0.995605 0.1875 0.870605C0.3125 0.745605 0.464286 0.683105 0.642857 0.683105H2.78571C2.96429 0.683105 3.11607 0.745605 3.24107 0.870605C3.36607 0.995605 3.42857 1.14739 3.42857 1.32596ZM12 4.75453V6.04024C12 6.21881 11.9375 6.3706 11.8125 6.4956C11.6875 6.6206 11.5357 6.6831 11.3571 6.6831H4.92857C4.75 6.6831 4.59821 6.6206 4.47321 6.4956C4.34821 6.3706 4.28571 6.21881 4.28571 6.04024V4.75453C4.28571 4.57596 4.34821 4.42417 4.47321 4.29917C4.59821 4.17417 4.75 4.11167 4.92857 4.11167H11.3571C11.5357 4.11167 11.6875 4.17417 11.8125 4.29917C11.9375 4.42417 12 4.57596 12 4.75453ZM12 1.32596V2.61167C12 2.79025 11.9375 2.94203 11.8125 3.06703C11.6875 3.19203 11.5357 3.25453 11.3571 3.25453H4.92857C4.75 3.25453 4.59821 3.19203 4.47321 3.06703C4.34821 2.94203 4.28571 2.79025 4.28571 2.61167V1.32596C4.28571 1.14739 4.34821 0.995605 4.47321 0.870605C4.59821 0.745605 4.75 0.683105 4.92857 0.683105H11.3571C11.5357 0.683105 11.6875 0.745605 11.8125 0.870605C11.9375 0.995605 12 1.14739 12 1.32596Z" fill="#56C26A"/>
</svg>
