<svg width="12" height="13" viewBox="0 0 12 13" fill="none" xmlns="http://www.w3.org/2000/svg">
<path d="M9.656 6.48291C10.2187 6.48291 10.656 6.04558 10.656 5.48291C10.656 4.92024 10.2187 4.48291 9.656 4.48291C9.09333 4.48291 8.656 4.92024 8.656 5.48291C8.656 6.04558 9.09333 6.48291 9.656 6.48291ZM7.656 3.82691C8.21867 3.82691 8.656 3.38958 8.656 2.82691C8.656 2.26424 8.21867 1.82691 7.656 1.82691C7.09333 1.82691 6.656 2.26424 6.656 2.82691C6.656 3.38958 7.09333 3.82691 7.656 3.82691ZM4.344 3.82691C4.90667 3.82691 5.344 3.38958 5.344 2.82691C5.344 2.26424 4.90667 1.82691 4.344 1.82691C3.78133 1.82691 3.344 2.26424 3.344 2.82691C3.344 3.38958 3.78133 3.82691 4.344 3.82691ZM2.344 6.48291C2.90667 6.48291 3.344 6.04558 3.344 5.48291C3.344 4.92024 2.90667 4.48291 2.344 4.48291C1.78133 4.48291 1.344 4.92024 1.344 5.48291C1.344 6.04558 1.78133 6.48291 2.344 6.48291ZM6 0.48291C9.31267 0.48291 12 2.88891 12 5.82691C12 7.67091 10.5 9.13958 8.656 9.13958H7.5C6.93733 9.13958 6.5 9.57691 6.5 10.1396C6.5 10.3896 6.594 10.6082 6.75 10.7956C6.906 10.9829 7 11.2329 7 11.4829C7 12.0456 6.56267 12.4829 6 12.4829C2.68733 12.4829 0 9.79558 0 6.48291C0 3.17024 2.68733 0.48291 6 0.48291Z" fill="#56C26A"/>
</svg>
