<svg width="12" height="13" viewBox="0 0 12 13" fill="none" xmlns="http://www.w3.org/2000/svg">
<path d="M10 1.98291H2C0.9 1.98291 0 2.88291 0 3.98291V8.98291C0 10.0829 0.9 10.9829 2 10.9829H10C11.1 10.9829 12 10.0829 12 8.98291V3.98291C12 2.88291 11.1 1.98291 10 1.98291ZM10.8 4.88291L6.85 7.53291C6.6 7.68291 6.3 7.78291 6 7.78291C5.7 7.78291 5.4 7.68291 5.15 7.53291L1.2 4.88291C1 4.73291 0.95 4.43291 1.1 4.18291C1.25 3.98291 1.55 3.93291 1.8 4.08291L5.75 6.73291C5.9 6.83291 6.15 6.83291 6.3 6.73291L10.25 4.08291C10.5 3.93291 10.8 3.98291 10.95 4.23291C11.05 4.43291 11 4.73291 10.8 4.88291Z" fill="#56C26A"/>
</svg>
