<svg width="12" height="13" viewBox="0 0 12 13" fill="none" xmlns="http://www.w3.org/2000/svg">
<path fill-rule="evenodd" clip-rule="evenodd" d="M10.6667 0.48291H1.33333C0.6 0.48291 0 1.08291 0 1.81624V11.1496C0 11.8829 0.6 12.4829 1.33333 12.4829H10.6667C11.4 12.4829 12 11.8829 12 11.1496V1.81624C12 1.08291 11.4 0.48291 10.6667 0.48291ZM4 9.81624H2.66667V8.48291H4V9.81624ZM4 7.14958H2.66667V5.81624H4V7.14958ZM4 4.48291H2.66667V3.14958H4V4.48291ZM9.33333 9.81624H4.66667V8.48291H9.33333V9.81624ZM9.33333 7.14958H4.66667V5.81624H9.33333V7.14958ZM9.33333 4.48291H4.66667V3.14958H9.33333V4.48291Z" fill="#56C26A"/>
</svg>
