<svg width="11" height="11" viewBox="0 0 11 11" fill="none" xmlns="http://www.w3.org/2000/svg">
<path d="M10.5 1.35791V9.60791C10.5 10.2292 9.99633 10.7329 9.375 10.7329H1.125C0.503672 10.7329 0 10.2292 0 9.60791V1.35791C0 0.736582 0.503672 0.23291 1.125 0.23291H9.375C9.99633 0.23291 10.5 0.736582 10.5 1.35791ZM8.4375 1.73291H5.81318C5.31366 1.73291 5.0613 2.33903 5.41542 2.69317L6.16505 3.44286L1.58238 8.02553C1.47255 8.13535 1.47255 8.31343 1.58238 8.42328L2.30962 9.15053C2.41948 9.26035 2.59755 9.26035 2.70738 9.15053L7.29002 4.56789L8.03974 5.31768C8.39198 5.66987 9 5.42256 9 4.91992V2.29541C9 1.98475 8.74816 1.73291 8.4375 1.73291Z" fill="#56C26A"/>
</svg>
