<svg width="12" height="11" viewBox="0 0 12 11" fill="none" xmlns="http://www.w3.org/2000/svg">
<path d="M5.99991 0.414062C3.22341 0.414062 0.972656 2.665 0.972656 5.44188C0.972656 8.21819 3.22341 10.4691 5.99991 10.4691C8.77659 10.4691 11.0272 8.218 11.0272 5.44188C11.0272 2.665 8.77659 0.414062 5.99991 0.414062ZM6.32184 5.44038C6.02653 5.44075 6.00141 5.23525 5.99991 5.176V1.69919C6.00853 1.57825 6.07134 1.35044 6.42141 1.40931C6.42834 1.41025 6.43491 1.411 6.44222 1.41194C6.46472 1.41569 6.48591 1.41869 6.50222 1.42C7.52222 1.56325 9.75965 2.22663 10.0392 5.23431C10.0313 5.31794 9.9839 5.43981 9.77447 5.44113C7.97409 5.43606 6.83503 5.43831 6.32184 5.44038Z" fill="#56C26A"/>
</svg>
