<svg width="12" height="13" viewBox="0 0 12 13" fill="none" xmlns="http://www.w3.org/2000/svg">
<g clip-path="url(#clip0_34_689)">
<path d="M5.99966 0.48291C4.47791 0.48291 3.09266 1.05441 2.03516 1.98741L4.16891 4.12116C4.67666 3.72741 5.30666 3.48291 5.99966 3.48291C6.69266 3.48291 7.32266 3.72741 7.83041 4.12191L9.96416 1.98816C8.90666 1.05441 7.52141 0.48291 5.99966 0.48291Z" fill="#56C26A"/>
<path d="M4.16891 8.84375L2.03516 10.9775C3.09266 11.9112 4.47791 12.4827 5.99966 12.4827C7.52141 12.4827 8.90666 11.9113 9.96416 10.9783L7.83041 8.8445C7.32266 9.23825 6.69266 9.48275 5.99966 9.48275C5.30666 9.48275 4.67666 9.23825 4.16891 8.84375Z" fill="#56C26A"/>
<path d="M8.36133 4.6523C8.75583 5.16005 9.00033 5.79005 9.00033 6.48305C9.00033 7.17605 8.75583 7.80605 8.36133 8.3138L10.4951 10.4476C11.4288 9.39005 12.0003 8.0048 12.0003 6.48305C12.0003 4.9613 11.4288 3.57605 10.4958 2.51855L8.36133 4.6523Z" fill="#56C26A"/>
<path d="M3.639 8.3138C3.2445 7.80605 3 7.17605 3 6.48305C3 5.79005 3.2445 5.16005 3.639 4.6523L1.5045 2.51855C0.5715 3.57605 0 4.9613 0 6.48305C0 8.0048 0.5715 9.39005 1.5045 10.4476L3.639 8.3138Z" fill="#56C26A"/>
</g>
<defs>
<clipPath id="clip0_34_689">
<rect width="12" height="12" fill="white" transform="translate(0 0.48291)"/>
</clipPath>
</defs>
</svg>
