<svg width="12" height="13" viewBox="0 0 12 13" fill="none" xmlns="http://www.w3.org/2000/svg">
<path d="M1.28571 0.48291C0.575631 0.48291 0 1.05854 0 1.76862V11.1972C0 11.9073 0.575631 12.4829 1.28571 12.4829H10.7143C11.4243 12.4829 12 11.9073 12 11.1972V1.76862C12 1.05854 11.4243 0.48291 10.7143 0.48291H1.28571ZM9.73166 3.39416C9.89897 3.56153 9.89897 3.83288 9.73157 4.00025L8.23157 5.50017C8.06957 5.6622 7.80874 5.6681 7.63954 5.51357L6.99669 4.92642C6.82191 4.76681 6.80966 4.49573 6.96926 4.32096C7.12886 4.14618 7.39997 4.13391 7.57474 4.29353L7.9152 4.60446L9.12557 3.39414C9.29289 3.22678 9.56426 3.22679 9.73166 3.39416ZM9.73166 7.67991C9.89897 7.84722 9.89897 8.1186 9.73157 8.286L8.23157 9.78591C8.06957 9.94791 7.80874 9.95382 7.63954 9.79928L6.99669 9.21214C6.82191 9.05254 6.80966 8.78142 6.96926 8.60665C7.12886 8.43188 7.39997 8.41962 7.57474 8.57922L7.9152 8.8902L9.12557 7.67982C9.29289 7.51251 9.56426 7.51251 9.73166 7.67991ZM3 8.1972H5.14286C5.37955 8.1972 5.57143 8.38911 5.57143 8.62577C5.57143 8.86242 5.37955 9.05434 5.14286 9.05434H3C2.76331 9.05434 2.57143 8.86242 2.57143 8.62577C2.57143 8.38911 2.76331 8.1972 3 8.1972ZM2.57143 4.34005C2.57143 4.10336 2.76331 3.91148 3 3.91148H5.14286C5.37955 3.91148 5.57143 4.10336 5.57143 4.34005C5.57143 4.57674 5.37955 4.76862 5.14286 4.76862H3C2.76331 4.76862 2.57143 4.57674 2.57143 4.34005Z" fill="#56C26A"/>
</svg>
